<?xml version="1.0" standalone="no"?>
<!DOCTYPE svg PUBLIC "-//W3C//DTD SVG 20010904//EN"
 "http://www.w3.org/TR/2001/REC-SVG-20010904/DTD/svg10.dtd">
<svg version="1.0" xmlns="http://www.w3.org/2000/svg"
 width="700.000000pt" height="700.000000pt" viewBox="0 0 700.000000 700.000000"
 preserveAspectRatio="xMidYMid meet">
<metadata>
Created by potrace 1.14, written by Peter Selinger 2001-2017
</metadata>
<g transform="translate(0.000000,700.000000) scale(0.100000,-0.100000)"
fill="#000000" stroke="none">
<path d="M3546 6985 c-62 -23 -122 -79 -152 -142 l-28 -56 0 -564 c-1 -630 6
-576 -76 -587 -42 -6 -91 -14 -115 -20 -5 -2 -23 -6 -40 -10 -217 -54 -462
-173 -625 -303 -372 -298 -578 -759 -585 -1310 -2 -176 23 -343 67 -451 6 -15
12 -32 13 -38 12 -55 134 -275 198 -359 71 -92 195 -219 282 -291 33 -27 62
-52 63 -56 2 -5 10 -8 18 -8 8 0 14 -4 14 -10 0 -5 6 -10 14 -10 8 0 16 -3 18
-7 3 -8 29 -26 125 -86 24 -15 48 -27 54 -27 7 0 20 -6 28 -13 14 -11 66 -36
166 -78 55 -24 220 -72 290 -84 119 -22 162 -26 250 -27 85 -1 107 3 149 23
175 82 217 306 83 447 -17 17 -37 32 -44 32 -7 0 -13 4 -13 9 0 20 -72 36
-205 45 -38 3 -81 8 -95 10 -23 5 -78 18 -90 21 -3 1 -18 5 -35 9 -16 4 -39
12 -50 17 -12 6 -29 11 -38 13 -9 1 -23 8 -29 14 -7 7 -17 12 -22 12 -31 0
-226 118 -299 180 -169 143 -312 355 -342 510 -25 127 -21 321 10 460 3 14 7
36 10 50 19 104 85 262 153 363 80 121 249 270 349 308 15 5 33 15 41 21 26
22 232 85 307 94 22 3 47 7 55 10 8 3 76 8 150 10 124 5 140 8 198 36 70 33
123 94 143 163 12 41 16 295 6 312 -4 6 -4 13 0 16 3 4 6 175 6 382 0 206 2
375 4 375 2 0 19 -7 38 -14 19 -8 35 -13 35 -10 0 3 6 0 13 -6 6 -6 48 -31 92
-56 43 -24 111 -69 150 -99 74 -56 205 -182 205 -197 0 -4 7 -8 16 -8 8 0 13
-4 10 -8 -3 -5 5 -20 17 -33 12 -13 40 -52 63 -87 22 -34 44 -59 49 -55 4 4 5
3 1 -4 -4 -7 6 -38 22 -70 96 -191 114 -400 55 -623 -16 -62 -19 -70 -59 -160
-33 -73 -111 -186 -169 -245 -33 -33 -93 -84 -170 -143 -29 -22 -180 -93 -250
-117 -101 -34 -248 -61 -351 -64 -111 -3 -192 -28 -239 -76 -15 -14 -80 -109
-77 -112 1 -2 2 -4 1 -5 -14 -46 -14 -152 0 -144 5 4 7 -3 4 -14 -7 -28 39
-102 90 -143 23 -19 65 -41 92 -49 48 -14 170 -16 260 -5 22 3 63 9 90 12 28
4 86 16 130 26 44 11 90 22 102 24 12 3 35 10 50 17 16 6 33 12 38 13 39 10
191 79 290 132 45 24 195 129 232 161 92 82 114 104 173 172 83 97 182 250
176 273 -2 9 0 14 5 11 5 -3 21 21 35 53 13 32 29 67 33 78 8 19 21 57 49 145
6 19 13 49 16 65 3 17 8 41 11 55 16 84 28 199 28 285 0 66 -11 211 -18 235
-2 8 -6 26 -9 40 -14 85 -77 274 -97 295 -5 5 -9 14 -9 21 0 15 -95 187 -138
249 -91 131 -258 314 -356 390 -21 17 -48 38 -60 49 -45 39 -215 146 -302 189
-94 48 -254 111 -254 101 0 -4 -6 -1 -13 5 -8 6 -27 13 -43 15 -16 2 -36 6
-44 10 -32 13 -188 33 -270 34 -52 1 -100 -4 -124 -13z"/>
<path d="M5001 2539 c-28 -9 -60 -24 -70 -33 -9 -9 -20 -16 -23 -16 -6 0 -262
-152 -328 -195 -37 -24 -372 -223 -443 -264 -23 -13 -61 -37 -85 -52 -24 -16
-44 -29 -46 -29 -1 0 -54 -31 -117 -69 -63 -38 -172 -103 -242 -145 l-128 -76
-99 53 c-162 85 -217 114 -293 156 -39 21 -112 60 -162 86 -105 55 -203 108
-295 157 -295 159 -435 231 -446 231 -7 0 -11 3 -9 7 10 15 -191 99 -230 95
-94 -9 -159 -37 -210 -89 -72 -75 -94 -212 -49 -303 14 -26 39 -62 56 -80 36
-38 144 -97 159 -88 5 4 8 2 7 -5 -2 -6 38 -32 87 -58 50 -27 140 -74 200
-106 61 -32 137 -73 170 -91 53 -29 394 -211 595 -317 41 -22 76 -41 78 -43 1
-1 -41 -28 -95 -60 -54 -32 -100 -61 -103 -64 -3 -3 -26 -17 -52 -31 -27 -13
-48 -28 -48 -32 0 -5 -6 -8 -12 -8 -7 0 -41 -18 -76 -40 -34 -22 -65 -40 -67
-40 -2 0 -24 -13 -48 -30 -25 -16 -48 -30 -52 -30 -3 0 -25 -12 -48 -27 -49
-32 -47 -31 -192 -118 -60 -36 -119 -71 -130 -78 -104 -64 -126 -77 -131 -77
-3 0 -31 -17 -62 -38 -31 -20 -74 -46 -95 -57 -172 -91 -218 -300 -96 -438 22
-26 47 -47 55 -47 8 0 14 -4 14 -9 0 -16 71 -35 137 -37 52 -1 72 4 125 30
100 50 148 79 148 88 0 4 5 8 11 8 14 0 133 71 137 82 2 4 12 8 22 8 10 0 20
4 22 8 2 6 191 122 273 168 21 12 229 137 255 153 8 6 58 35 110 66 52 31 127
76 165 100 39 25 77 48 85 51 14 7 96 56 136 82 77 50 78 50 162 6 42 -22 107
-57 145 -78 37 -20 67 -33 67 -29 0 4 4 3 8 -3 8 -12 153 -92 387 -213 55 -29
104 -57 110 -62 5 -5 17 -9 27 -9 10 0 18 -4 18 -9 0 -5 12 -14 28 -20 15 -6
59 -28 97 -49 39 -21 120 -65 180 -97 61 -32 142 -76 180 -97 114 -61 137 -70
200 -73 205 -12 352 204 266 387 -36 75 -76 110 -211 180 -91 48 -126 66 -150
80 -8 4 -37 20 -65 34 -27 14 -90 47 -140 74 -49 27 -124 67 -165 87 -41 21
-77 41 -80 44 -3 4 -23 15 -45 26 -22 10 -89 46 -150 78 -185 100 -269 144
-302 160 -17 8 -34 18 -37 23 -3 6 463 294 652 402 15 9 38 23 52 31 30 19
232 140 258 154 16 9 229 138 276 168 62 39 98 86 120 159 63 211 -141 407
-353 337z"/>
</g>
</svg>
